<svg width="24" height="24" viewBox="0 0 24 24" fill="none" xmlns="http://www.w3.org/2000/svg">
<path d="M3.52997 2.47003C3.38779 2.33755 3.19975 2.26543 3.00545 2.26885C2.81114 2.27228 2.62576 2.35099 2.48835 2.48841C2.35093 2.62582 2.27222 2.81121 2.26879 3.00551C2.26537 3.19981 2.33749 3.38785 2.46997 3.53003L20.47 21.53C20.5386 21.6037 20.6214 21.6628 20.7134 21.7038C20.8054 21.7448 20.9047 21.7668 21.0054 21.7686C21.1061 21.7704 21.2062 21.7519 21.2996 21.7142C21.393 21.6764 21.4778 21.6203 21.549 21.5491C21.6202 21.4778 21.6764 21.393 21.7141 21.2996C21.7518 21.2062 21.7703 21.1062 21.7686 21.0055C21.7668 20.9048 21.7447 20.8055 21.7038 20.7135C21.6628 20.6215 21.6037 20.5387 21.53 20.47L3.52997 2.47003ZM22.676 12.553C22.1369 14.1705 21.2373 15.6443 20.045 16.863L16.946 13.764C17.2803 12.828 17.342 11.8162 17.124 10.8464C16.9059 9.87663 16.417 8.98868 15.7142 8.28581C15.0113 7.58295 14.1234 7.09407 13.1536 6.87601C12.1838 6.65795 11.172 6.71969 10.236 7.05403L7.75897 4.57703C9.10599 4.02899 10.5467 3.74811 12.001 3.75003C16.971 3.75003 21.186 6.97303 22.676 11.44C22.796 11.802 22.796 12.192 22.676 12.553Z" fill="#333333"/>
<path d="M15.75 12C15.75 12.18 15.737 12.357 15.713 12.53L11.469 8.28699C12.001 8.2109 12.5431 8.25003 13.0587 8.40174C13.5742 8.55344 14.0511 8.81418 14.4571 9.16629C14.8631 9.5184 15.1886 9.95365 15.4117 10.4426C15.6348 10.9315 15.7502 11.4626 15.75 12ZM12.53 15.713L8.28704 11.469C8.2046 12.0455 8.25754 12.6332 8.44169 13.1857C8.62583 13.7381 8.93611 14.2401 9.34793 14.6519C9.75976 15.0636 10.2618 15.3737 10.8143 15.5577C11.3668 15.7418 11.9546 15.7946 12.531 15.712L12.53 15.713Z" fill="#333333"/>
<path d="M6.75001 12C6.75001 11.381 6.85701 10.787 7.05401 10.236L3.95401 7.13599C2.76211 8.35483 1.8628 9.82861 1.32401 11.446C1.20401 11.808 1.20401 12.198 1.32401 12.56C2.81301 17.027 7.02801 20.25 11.999 20.25C13.499 20.25 14.932 19.956 16.241 19.423L13.764 16.946C12.9717 17.2286 12.123 17.3168 11.2895 17.2029C10.456 17.0891 9.662 16.7766 8.97449 16.2917C8.28697 15.8069 7.72603 15.164 7.33891 14.4171C6.95178 13.6702 6.74981 12.8412 6.75001 12Z" fill="#333333"/>
</svg>
