<svg width="142" height="37" viewBox="0 0 142 37" fill="none" xmlns="http://www.w3.org/2000/svg">
<path d="M22.224 36L19.872 27.264H9.072L6.72 36H0.96L10.752 2.496H18.336L28.128 36H22.224ZM15.84 13.248L14.784 7.92H14.112L13.056 13.248L10.512 22.416H18.432L15.84 13.248ZM37.9414 36C35.9254 36 34.4694 35.552 33.5734 34.656C32.7094 33.76 32.2774 32.352 32.2774 30.432V0.48H38.0854V31.344H40.9654V36H37.9414ZM70.7149 36V10.944H76.5229V15.12H77.1949C78.1869 11.952 80.1549 10.368 83.0989 10.368C86.2349 10.368 88.2669 12.016 89.1949 15.312H89.7709C90.3149 13.616 91.1469 12.368 92.2669 11.568C93.4189 10.768 94.8109 10.368 96.4429 10.368C98.5549 10.368 100.203 11.136 101.387 12.672C102.571 14.176 103.163 16.336 103.163 19.152V36H97.3549V20.16C97.3549 16.896 96.1869 15.264 93.8509 15.264C92.7309 15.264 91.7709 15.616 90.9709 16.32C90.2029 16.992 89.8189 17.952 89.8189 19.2V36H84.0109V20.16C84.0109 18.432 83.7229 17.184 83.1469 16.416C82.5709 15.648 81.7069 15.264 80.5549 15.264C79.4349 15.264 78.4749 15.616 77.6749 16.32C76.9069 16.992 76.5229 17.952 76.5229 19.2V36H70.7149ZM109.199 36V10.944H115.007V15.12H115.679C116.671 11.952 118.671 10.368 121.679 10.368C123.919 10.368 125.647 11.136 126.863 12.672C128.079 14.176 128.687 16.336 128.687 19.152V36H122.879V20.16C122.879 16.896 121.663 15.264 119.231 15.264C118.047 15.264 117.039 15.616 116.207 16.32C115.407 16.992 115.007 17.952 115.007 19.2V36H109.199Z" fill="#333333"/>
<path d="M58.5611 31.776H57.8891C56.9291 34.976 54.8971 36.576 51.7931 36.576C49.5531 36.576 47.8251 35.824 46.6091 34.32C45.4251 32.784 44.8331 30.592 44.8331 27.744V10.944H50.6411V26.784C50.6411 30.08 51.8571 31.728 54.2891 31.728C55.4731 31.728 56.4811 31.376 57.3131 30.672C58.1451 29.968 58.5611 28.992 58.5611 27.744V10.944H64.3691V36H58.5611V31.776ZM137.626 7.008C136.41 7.008 135.53 6.752 134.986 6.24C134.442 5.696 134.17 4.976 134.17 4.08V3.12C134.17 2.224 134.442 1.52 134.986 1.008C135.53 0.463998 136.41 0.191998 137.626 0.191998C138.842 0.191998 139.722 0.463998 140.266 1.008C140.81 1.52 141.082 2.224 141.082 3.12V4.08C141.082 4.976 140.81 5.696 140.266 6.24C139.722 6.752 138.842 7.008 137.626 7.008ZM134.746 10.944H140.554V36H134.746V10.944Z" fill="#40BA21"/>
</svg>
